ply
format ascii 1.0
comment VTK generated PLY File
obj_info vtkPolyData points and polygons: vtk4.0
element vertex 1034
property float x
property float y
property float z
element face 1152
property list uchar int vertex_indices
end_header
6.81061 1.81986 0.776753 
6.93337 1.74651 0.96115 
6.98984 1.67412 1.11689 
7.02116 1.58475 1.29365 
7.02253 1.42935 1.57945 
7.15537 1.21018 1.58423 
7.21904 1.03083 1.59375 
7.25762 0.831306 1.60838 
7.26938 0.514709 1.63776 
6.88101 1.75547 0.537677 
7.0231 1.68232 0.711848 
7.13094 1.57673 0.846819 
7.17325 1.50052 0.989996 
7.17575 1.38938 1.29291 
7.29332 1.16014 1.23605 
7.33549 0.989824 1.25147 
7.35386 0.72993 1.3338 
7.34119 0.40187 1.36488 
6.90013 1.7343 0.364281 
7.09132 1.60944 0.509799 
7.17432 1.52703 0.64596 
7.25872 1.40572 0.754207 
7.27085 1.3198 1.02359 
7.35812 1.10759 0.953736 
7.38521 0.895095 1.04823 
7.39942 0.667509 1.07556 
7.36267 0.301243 1.19223 
6.89382 1.73333 0.187292 
7.10093 1.59587 0.350525 
7.22703 1.45635 0.46355 
7.29247 1.34848 0.569474 
7.3357 1.2353 0.750172 
7.38902 1.03502 0.760489 
7.41249 0.846757 0.816582 
7.41168 0.57396 0.925258 
7.35987 0.183332 1.03643 
6.84152 1.76642 -0.0691181 
7.04516 1.64518 0.0876579 
7.18721 1.50681 0.221464 
7.29696 1.34278 0.351033 
7.37203 1.14607 0.476443 
7.40976 0.907216 0.586586 
7.41528 0.637573 0.679785 
7.38976 0.343402 0.762005 
7.31447 -0.0128687 0.844857 
6.97301 1.68155 -0.183877 
7.17129 1.51806 -0.00965824 
7.28283 1.36672 0.128876 
7.34291 1.23212 0.196765 
7.383 1.05474 0.205345 
7.40101 0.924412 0.366407 
7.40898 0.761528 0.444731 
7.39303 0.498218 0.505013 
7.32714 0.12649 0.582514 
7.03525 1.60602 -0.301641 
7.21039 1.44263 -0.135827 
7.29306 1.30084 -0.087957 
7.35421 1.15447 0.0119132 
7.36764 0.944935 -0.0685367 
7.39211 0.869983 0.181453 
7.38839 0.686155 0.250067 
7.37963 0.511025 0.342916 
7.31939 0.173322 0.402342 
7.07201 1.51765 -0.449755 
7.21574 1.35027 -0.37923 
7.30146 1.19176 -0.283371 
7.33285 1.05554 -0.269023 
7.32315 0.813111 -0.347625 
7.35844 0.740483 -0.064923 
7.36206 0.636766 0.0510627 
7.34111 0.428551 0.128535 
7.29778 0.177283 0.226594 
7.08052 1.37074 -0.710978 
7.19742 1.18774 -0.656244 
7.24288 1.04167 -0.638316 
7.25751 0.8818 -0.637626 
7.22557 0.632165 -0.666032 
7.26916 0.54731 -0.394657 
7.28083 0.453234 -0.243007 
7.27663 0.330911 -0.124721 
7.24359 0.109752 -0.0143751 
7.0225 1.42931 1.57958 
6.81305 1.43323 1.80506 
6.49484 1.39969 1.95708 
6.06794 1.32854 2.03571 
5.53234 1.21984 2.04089 
7.13901 1.24477 1.583 
6.91712 1.15203 1.97161 
6.59715 1.08577 2.15491 
6.16958 0.998003 2.23057 
5.62995 0.877477 2.23087 
7.219 1.03081 1.59385 
6.99741 0.907511 2.01619 
6.68341 0.786393 2.23522 
6.26424 0.659278 2.31448 
5.72712 0.517966 2.31763 
7.26244 0.787434 1.61216 
7.0546 0.64153 2.00561 
6.76134 0.472973 2.19982 
6.35387 0.305219 2.28789 
5.82386 0.141311 2.30119 
7.26934 0.514702 1.63788 
7.11497 0.312334 1.87944 
6.83863 0.117003 2.05059 
6.44037 -0.0713214 2.15126 
5.92015 -0.252488 2.18154 
7.31445 -0.0129757 0.844945 
7.35623 0.156652 1.00634 
7.36265 0.301144 1.19229 
7.33369 0.420452 1.4028 
7.26936 0.51458 1.63781 
7.17847 -0.341137 0.914358 
7.20338 -0.263667 1.22273 
7.20417 -0.129715 1.44678 
7.17411 0.0341809 1.66193 
7.11499 0.312185 1.87936 
6.93478 -0.650079 0.965432 
6.94871 -0.576928 1.31645 
6.93827 -0.435698 1.59782 
6.90206 -0.209908 1.83426 
6.83865 0.116927 2.05055 
6.58339 -0.939756 0.998087 
6.58409 -0.845499 1.36661 
6.56072 -0.672089 1.67752 
6.51294 -0.415404 1.93701 
6.44037 -0.0713214 2.15126 
6.12431 -1.21015 1.01248 
6.10705 -1.09295 1.3955 
6.06727 -0.894274 1.71801 
6.00497 -0.61412 1.98003 
5.92015 -0.252488 2.18154 
7.24356 0.109631 -0.0143759 
7.29155 0.17264 0.190735 
7.31936 0.173217 0.402328 
7.32699 0.111328 0.620368 
7.31444 -0.0129847 0.844821 
7.09824 -0.195957 -0.147672 
7.11973 -0.266925 0.106589 
7.14189 -0.293853 0.340511 
7.15596 -0.332824 0.590602 
7.17846 -0.34115 0.914207 
6.86195 -0.49846 -0.275187 
6.87699 -0.598916 0.0116221 
6.89266 -0.65513 0.29611 
6.91119 -0.670909 0.60507 
6.93478 -0.650087 0.965355 
6.53471 -0.797807 -0.396954 
6.54715 -0.902117 -0.0762315 
6.55904 -0.959907 0.258707 
6.57093 -0.972134 0.614576 
6.58339 -0.939756 0.998087 
6.11652 -1.09405 -0.512852 
6.12443 -1.20219 -0.155474 
6.12836 -1.25758 0.217874 
6.12832 -1.26024 0.607191 
6.12431 -1.21015 1.01248 
7.22554 0.632062 -0.666094 
7.26473 0.563183 -0.430303 
7.2808 0.453153 -0.243075 
7.27374 0.301966 -0.104462 
7.24355 0.10967 -0.0144642 
7.07328 0.452315 -0.957997 
7.08067 0.236578 -0.740828 
7.09129 0.0889429 -0.547091 
7.09216 -0.0590027 -0.371309 
7.09823 -0.19591 -0.147781 
6.82518 0.266196 -1.23557 
6.83093 0.00325431 -1.00604 
6.83859 -0.200976 -0.78303 
6.84875 -0.362764 -0.54622 
6.86195 -0.498436 -0.275245 
6.48127 0.0737885 -1.4988 
6.49529 -0.216958 -1.24559 
6.50878 -0.456419 -0.980939 
6.52187 -0.648674 -0.699757 
6.53471 -0.797807 -0.396954 
6.04154 -0.125027 -1.7476 
6.06692 -0.448089 -1.46945 
6.08788 -0.717279 -1.17093 
6.10442 -0.932599 -0.852069 
6.11652 -1.09405 -0.512852 
7.08049 1.3707 -0.711111 
7.18412 1.21624 -0.662225 
7.24285 1.04165 -0.638428 
7.25665 0.846938 -0.63975 
7.22554 0.632152 -0.666167 
6.89125 1.37651 -1.01712 
6.98726 1.12708 -1.1239 
7.04704 0.920475 -1.13009 
7.07035 0.705368 -1.09683 
7.07328 0.452425 -0.958087 
6.60471 1.37786 -1.3145 
6.70323 1.08201 -1.45286 
6.76981 0.813474 -1.48678 
6.80894 0.549251 -1.41484 
6.82518 0.266254 -1.23562 
6.22087 1.37481 -1.60317 
6.32549 1.03569 -1.74269 
6.40301 0.709663 -1.77204 
6.45456 0.390952 -1.69086 
6.48127 0.0737885 -1.4988 
5.73978 1.36722 -1.8832 
5.8511 0.976863 -2.02487 
5.9385 0.598034 -2.04949 
6.00198 0.230738 -1.95707 
6.04154 -0.125027 -1.74761 
6.84146 1.76645 -0.0692162 
6.95688 1.69562 -0.163355 
7.0352 1.60605 -0.301716 
7.07639 1.49777 -0.484298 
7.08045 1.37079 -0.711049 
6.59842 1.87185 -0.218884 
6.67343 1.8276 -0.460572 
6.74655 1.73682 -0.638986 
6.80677 1.6016 -0.824599 
6.8912 1.37663 -1.01705 
6.26996 1.97415 -0.368091 
6.33983 1.93006 -0.664197 
6.41394 1.82423 -0.907287 
6.49973 1.64431 -1.11736 
6.60468 1.37792 -1.31446 
5.8561 2.07333 -0.516751 
5.92939 2.02311 -0.852371 
6.01337 1.89201 -1.14197 
6.10991 1.67694 -1.39056 
6.22087 1.37481 -1.60317 
5.35686 2.16939 -0.664998 
5.43193 2.11554 -1.04782 
5.52078 1.96389 -1.37847 
5.62339 1.71446 -1.65692 
5.73978 1.36722 -1.8832 
6.81053 1.81989 0.776717 
6.87381 1.76241 0.573124 
6.90006 1.73433 0.364265 
6.88927 1.73568 0.150171 
6.84144 1.76645 -0.0691191 
6.55873 1.92348 0.827769 
6.54408 1.90124 0.532267 
6.55553 1.8826 0.29295 
6.56223 1.87835 0.0551969 
6.5984 1.87186 -0.218764 
6.21945 1.99359 0.857882 
6.19192 1.99292 0.530575 
6.19051 1.99058 0.234743 
6.2162 1.98488 -0.0559795 
6.26995 1.97415 -0.368027 
5.79275 2.03022 0.8671 
5.7698 2.0559 0.522376 
5.77255 2.07192 0.181232 
5.80124 2.07787 -0.162941 
5.8561 2.07333 -0.516752 
5.27859 2.03337 0.855287 
5.26169 2.09659 0.49685 
5.26911 2.14034 0.12399 
5.30083 2.1646 -0.263292 
5.35686 2.16939 -0.664998 
7.02246 1.42941 1.57949 
7.02444 1.56415 1.33294 
6.98978 1.67416 1.11695 
6.91847 1.75942 0.931573 
6.81054 1.8199 0.776829 
6.813 1.43336 1.80496 
6.73096 1.67741 1.55648 
6.67798 1.81616 1.33165 
6.61541 1.90115 1.11179 
6.55874 1.92348 0.827906 
6.49482 1.39975 1.95703 
6.39653 1.67465 1.70222 
6.32229 1.85715 1.4508 
6.26547 1.9594 1.17774 
6.21946 1.99359 0.85795 
6.06794 1.32854 2.03571 
5.97232 1.61646 1.77649 
5.89568 1.82735 1.49949 
5.83637 1.96425 1.19846 
5.79275 2.03022 0.8671 
5.53234 1.21984 2.04089 
5.44311 1.52104 1.78561 
5.37108 1.75702 1.50292 
5.31623 1.9278 1.19281 
5.27859 2.03336 0.855288 
5.92015 -0.252488 2.18154 
5.82386 0.141311 2.30119 
5.72712 0.517966 2.31763 
5.62995 0.877477 2.23087 
5.53234 1.21984 2.04089 
5.33143 -0.428219 2.16923 
5.22649 -0.020157 2.27011 
5.12573 0.368832 2.27626 
5.02914 0.738748 2.18768 
4.93671 1.08959 2.00436 
4.72765 -0.600162 2.1422 
4.61696 -0.180593 2.22505 
4.51374 0.218253 2.22193 
4.418 0.596374 2.13287 
4.32973 0.953772 1.95784 
4.10882 -0.768319 2.10046 
3.99526 -0.339997 2.166 
3.89116 0.0662278 2.15466 
3.79655 0.450356 2.06644 
3.7114 0.812385 1.90134 
3.47493 -0.932688 2.04401 
3.36138 -0.498369 2.09298 
3.25799 -0.0872422 2.07444 
3.16477 0.300691 1.9884 
3.08172 0.665432 1.83485 
5.92015 -0.252488 2.18154 
5.33143 -0.428219 2.16923 
4.72765 -0.600163 2.1422 
4.10882 -0.768319 2.10046 
3.47493 -0.932688 2.04401 
6.00497 -0.61412 1.98003 
5.42826 -0.806122 1.98579 
4.83293 -0.991477 1.97675 
4.21897 -1.17019 1.95292 
3.58637 -1.34225 1.91429 
6.06727 -0.894274 1.71801 
5.50472 -1.10464 1.73197 
4.91989 -1.30556 1.73205 
4.3128 -1.49704 1.71824 
3.68343 -1.67909 1.69056 
6.10705 -1.09295 1.3955 
5.56079 -1.32376 1.40777 
4.98855 -1.54241 1.40808 
4.39032 -1.7489 1.39643 
3.7661 -1.94322 1.37283 
6.12431 -1.21015 1.01248 
5.59649 -1.4635 1.01318 
5.0389 -1.70203 1.00485 
4.45153 -1.92574 0.987489 
3.83439 -2.13463 0.961091 
6.12431 -1.21015 1.01248 
5.59649 -1.4635 1.01318 
5.0389 -1.70203 1.00485 
4.45153 -1.92574 0.987489 
3.83439 -2.13463 0.961091 
6.12832 -1.26024 0.607191 
5.61792 -1.53331 0.588709 
5.07428 -1.78944 0.564922 
4.49742 -2.02862 0.53583 
3.88732 -2.25086 0.501432 
6.12836 -1.25758 0.217874 
5.63119 -1.54267 0.174841 
5.09806 -1.80967 0.130841 
4.52897 -2.05858 0.0858728 
3.92393 -2.28941 0.0399369 
6.12443 -1.20219 -0.155474 
5.6363 -1.49157 -0.228421 
5.11022 -1.76272 -0.297391 
4.5462 -2.01562 -0.362382 
3.94422 -2.25029 -0.423394 
6.11652 -1.09405 -0.512852 
5.63326 -1.38002 -0.621079 
5.11078 -1.64858 -0.719773 
4.54909 -1.89974 -0.808933 
3.94819 -2.1335 -0.888561 
6.11652 -1.09405 -0.512852 
5.63326 -1.38002 -0.621079 
5.11078 -1.64858 -0.719773 
4.54909 -1.89974 -0.808933 
3.94819 -2.1335 -0.888561 
6.10442 -0.932599 -0.852069 
5.62179 -1.20776 -0.996227 
5.0994 -1.46738 -1.1253 
4.53723 -1.71145 -1.23929 
3.93531 -1.93999 -1.3382 
6.08788 -0.71728 -1.17093 
5.60163 -0.974546 -1.34696 
5.07573 -1.21921 -1.50297 
4.5102 -1.45126 -1.63896 
3.90503 -1.6707 -1.75494 
6.06692 -0.448089 -1.46945 
5.57278 -0.680378 -1.67328 
5.0398 -0.904067 -1.85279 
4.46799 -1.11915 -2.00795 
3.85735 -1.32564 -2.13878 
6.04154 -0.125027 -1.74761 
5.53523 -0.325256 -1.97519 
4.99158 -0.521962 -2.17474 
4.4106 -0.715145 -2.34625 
3.79228 -0.904806 -2.48973 
6.04154 -0.125027 -1.74761 
5.53523 -0.325256 -1.97519 
4.99158 -0.521962 -2.17474 
4.4106 -0.715145 -2.34625 
3.79228 -0.904806 -2.48973 
6.00198 0.230738 -1.95707 
5.48242 0.0684611 -2.20305 
4.92711 -0.0960229 -2.4184 
4.33605 -0.262714 -2.60311 
3.70922 -0.431613 -2.75719 
5.9385 0.598034 -2.04949 
5.40779 0.478411 -2.30721 
4.8424 0.350617 -2.5333 
4.24234 0.214655 -2.72776 
3.60759 0.0705215 -2.89057 
5.8511 0.976863 -2.02487 
5.31133 0.904593 -2.28769 
4.73745 0.817959 -2.51946 
4.12947 0.71696 -2.72019 
3.48738 0.601597 -2.88988 
5.73978 1.36722 -1.8832 
5.19304 1.34701 -2.14447 
4.61226 1.306 -2.37687 
3.99744 1.2442 -2.58042 
3.34858 1.16161 -2.75511 
5.73978 1.36722 -1.8832 
5.19304 1.34701 -2.14447 
4.61226 1.306 -2.37687 
3.99744 1.2442 -2.58042 
3.34858 1.16161 -2.75511 
5.62339 1.71446 -1.65692 
5.07144 1.74159 -1.90713 
4.48531 1.7431 -2.13186 
3.865 1.71896 -2.33113 
3.21051 1.66919 -2.50494 
5.52078 1.96389 -1.37847 
4.96505 2.02428 -1.60524 
4.37509 2.05759 -1.81076 
3.75089 2.0638 -1.99502 
3.09245 2.04293 -2.15803 
5.43193 2.11554 -1.04782 
4.87387 2.19508 -1.2388 
4.28159 2.24948 -1.41355 
3.6551 2.27873 -1.57208 
2.99441 2.28285 -1.71438 
5.35686 2.16939 -0.664998 
4.79788 2.25398 -0.807816 
4.20481 2.31877 -0.940254 
3.57764 2.36375 -1.06231 
2.91638 2.38893 -1.17399 
5.35686 2.16939 -0.664998 
4.79788 2.25398 -0.807816 
4.20481 2.31877 -0.940254 
3.57764 2.36375 -1.06231 
2.91638 2.38893 -1.17399 
5.30083 2.1646 -0.263292 
4.74102 2.24132 -0.357954 
4.14784 2.30429 -0.447843 
3.52131 2.35351 -0.532961 
2.86141 2.38897 -0.613308 
5.26911 2.14034 0.12399 
4.70718 2.19745 0.0651121 
4.11377 2.24489 0.00669325 
3.48889 2.28265 -0.0512663 
2.83253 2.31074 -0.108767 
5.26169 2.09659 0.49685 
4.69637 2.12236 0.461382 
4.1026 2.14056 0.423356 
3.48039 2.15119 0.382772 
2.82974 2.15425 0.339632 
5.27859 2.03336 0.855288 
4.70858 2.01605 0.830855 
4.11433 1.9913 0.802144 
3.49582 1.95911 0.769155 
2.85306 1.91949 0.731888 
5.27859 2.03337 0.855288 
4.70858 2.01605 0.830855 
4.11433 1.9913 0.802144 
3.49582 1.95911 0.769155 
2.85306 1.91949 0.731888 
5.31623 1.9278 1.19281 
4.74064 1.8667 1.17126 
4.14517 1.79766 1.14426 
3.52983 1.72066 1.11183 
2.89461 1.6357 1.07396 
5.37108 1.75702 1.50292 
4.78934 1.66251 1.48031 
4.19135 1.56019 1.45092 
3.5771 1.45005 1.41476 
2.94658 1.33209 1.37181 
5.44311 1.52104 1.78561 
4.8547 1.40348 1.75801 
4.25287 1.27889 1.72211 
3.63762 1.14729 1.67793 
3.00895 1.00867 1.62544 
5.53234 1.21984 2.04089 
4.93671 1.08959 2.00436 
4.32973 0.953772 1.95784 
3.7114 0.812386 1.90134 
3.08172 0.665431 1.83485 
3.47493 -0.932688 2.04401 
3.36138 -0.498368 2.09298 
3.25799 -0.0872422 2.07444 
3.16477 0.300691 1.9884 
3.08172 0.665431 1.83485 
2.86502 -1.09285 2.00938 
2.74923 -0.652087 2.04815 
2.64489 -0.235305 2.02476 
2.55201 0.157501 1.93919 
2.47059 0.52633 1.79146 
2.31813 -1.24837 2.03313 
2.19269 -0.797532 2.07372 
2.0825 -0.371108 2.04909 
1.98758 0.0309032 1.95927 
1.9079 0.408501 1.80424 
1.83425 -1.39926 2.11526 
1.69176 -0.934701 2.16967 
1.57084 -0.494649 2.14746 
1.47148 -0.0791004 2.04863 
1.39368 0.311945 1.87319 
1.41338 -1.54551 2.25575 
1.24645 -1.0636 2.336 
1.10989 -0.60593 2.31985 
1.00371 -0.172511 2.20728 
0.927901 0.236663 1.99832 
3.47493 -0.932688 2.04401 
2.86502 -1.09285 2.00938 
2.31813 -1.24837 2.03313 
1.83425 -1.39926 2.11526 
1.41338 -1.54551 2.25575 
3.58637 -1.34225 1.91429 
2.97901 -1.50977 1.88998 
2.44073 -1.67488 1.90914 
1.97152 -1.83756 1.97174 
1.5714 -1.99781 2.0778 
3.68343 -1.67909 1.69056 
3.07792 -1.85506 1.67149 
2.54238 -2.02831 1.68351 
2.07682 -2.19884 1.72663 
1.68123 -2.36665 1.80085 
3.7661 -1.94322 1.37283 
3.16174 -2.1287 1.3539 
2.62308 -2.30867 1.35626 
2.15013 -2.48311 1.37993 
1.74288 -2.65203 1.4249 
3.83439 -2.13463 0.961091 
3.23049 -2.33071 0.937208 
2.68285 -2.51595 0.92739 
2.19146 -2.69036 0.931637 
1.75633 -2.85394 0.949949 
3.83439 -2.13463 0.961091 
3.23049 -2.33071 0.937208 
2.68285 -2.51595 0.92739 
2.19146 -2.69036 0.931637 
1.75633 -2.85394 0.949949 
3.88732 -2.25086 0.501432 
3.2826 -2.45607 0.469466 
2.72185 -2.64416 0.447669 
2.20509 -2.81514 0.43604 
1.73229 -2.969 0.434581 
3.92393 -2.28941 0.0399369 
3.31652 -2.49977 -0.00128786 
2.7403 -2.6873 -0.032122 
2.19529 -2.85198 -0.0525656 
1.68148 -2.99382 -0.0626186 
3.94422 -2.25029 -0.423394 
3.33224 -2.46183 -0.475053 
2.73819 -2.64537 -0.511981 
2.16208 -2.80089 -0.53418 
1.60389 -2.9284 -0.54165 
3.94819 -2.1335 -0.888561 
3.32977 -2.34224 -0.951829 
2.71552 -2.51836 -0.99191 
2.10544 -2.66186 -1.0088 
1.49952 -2.77273 -1.00251 
3.94819 -2.1335 -0.888561 
3.32977 -2.34224 -0.951829 
2.71552 -2.51836 -0.99191 
2.10544 -2.66186 -1.0088 
1.49952 -2.77273 -1.00251 
3.93531 -1.93999 -1.3382 
3.30958 -2.14324 -1.41308 
2.67604 -2.31146 -1.455 
2.03466 -2.44466 -1.46395 
1.38547 -2.54283 -1.43994 
3.90503 -1.6707 -1.75494 
3.27214 -1.86706 -1.84027 
2.62348 -2.02984 -1.88433 
1.95905 -2.15905 -1.88713 
1.27883 -2.2547 -1.84865 
3.85735 -1.32564 -2.13878 
3.21745 -1.5137 -2.23339 
2.55786 -1.6735 -2.27991 
1.87858 -1.80504 -2.27833 
1.17961 -1.90833 -2.22866 
3.79228 -0.904806 -2.48973 
3.14551 -1.08316 -2.59246 
2.47917 -1.24244 -2.64174 
1.79327 -1.38262 -2.63757 
1.08781 -1.50373 -2.57996 
3.79228 -0.904806 -2.48973 
3.14551 -1.08316 -2.59246 
2.47917 -1.24244 -2.64174 
1.79327 -1.38262 -2.63757 
1.08781 -1.50373 -2.57996 
3.70922 -0.431613 -2.75719 
3.05617 -0.598147 -2.86688 
2.3864 -0.757743 -2.91842 
1.69992 -0.910402 -2.91183 
0.996723 -1.05612 -2.84708 
3.60759 0.0705214 -2.89057 
2.94928 -0.0813461 -3.00607 
2.27852 -0.240513 -3.05857 
1.59532 -0.40698 -3.04807 
0.899666 -0.580745 -2.97457 
3.48738 0.601597 -2.88988 
2.82485 0.467238 -3.01004 
2.15555 0.309253 -3.06218 
1.47948 0.127643 -3.0463 
0.796636 -0.0775957 -2.96241 
3.34858 1.16161 -2.75511 
2.68287 1.04761 -2.87878 
2.01747 0.891558 -2.92925 
1.35239 0.693464 -2.90652 
0.687633 0.453327 -2.8106 
3.34859 1.16161 -2.75511 
2.68287 1.04761 -2.87878 
2.01747 0.891558 -2.92925 
1.35239 0.693464 -2.90652 
0.687633 0.453327 -2.8106 
3.21051 1.66919 -2.50494 
2.54275 1.57712 -2.6284 
1.88261 1.42608 -2.67663 
1.2301 1.21608 -2.64965 
0.585231 0.947117 -2.54743 
3.09245 2.04293 -2.15803 
2.42388 1.97312 -2.27501 
1.76929 1.8325 -2.32119 
1.12866 1.62108 -2.29658 
0.502 1.33886 -2.20117 
2.99441 2.28285 -1.71438 
2.32628 2.23561 -1.81861 
1.67749 2.11082 -1.86292 
1.04805 1.90847 -1.84732 
0.437944 1.62857 -1.7718 
2.91638 2.38893 -1.17399 
2.24994 2.36459 -1.25919 
1.60724 2.26103 -1.30182 
0.988281 2.07825 -1.30187 
0.393063 1.81624 -1.25935 
2.91638 2.38893 -1.17399 
2.24994 2.36459 -1.25919 
1.60724 2.26103 -1.30182 
0.988282 2.07825 -1.30187 
0.393062 1.81624 -1.25935 
2.86141 2.38897 -0.613308 
2.19871 2.38001 -0.678665 
1.5638 2.29599 -0.718815 
0.956666 2.13689 -0.733758 
0.37731 1.90272 -0.723493 
2.83253 2.31074 -0.108767 
2.17646 2.30181 -0.158917 
1.55246 2.22852 -0.194828 
0.960517 2.09087 -0.216498 
0.400645 1.88886 -0.223929 
2.82974 2.15425 0.339632 
2.18317 2.12998 0.30005 
1.5732 2.05863 0.27014 
0.999833 1.9402 0.249905 
0.463063 1.77467 0.239342 
2.85306 1.91949 0.731888 
2.21886 1.86453 0.698236 
1.62604 1.78632 0.67609 
1.07461 1.68486 0.665452 
0.564566 1.56015 0.666321 
2.85306 1.91949 0.731888 
2.21886 1.86453 0.698236 
1.62604 1.78632 0.67609 
1.07461 1.68486 0.665452 
0.564566 1.56015 0.666321 
2.89461 1.6357 1.07396 
2.27222 1.5467 1.04241 
1.69533 1.45757 1.02893 
1.16394 1.36831 1.03353 
0.678061 1.27891 1.05619 
2.94658 1.33209 1.37181 
2.33196 1.21772 1.33934 
1.7654 1.11835 1.33457 
1.24689 1.03397 1.35751 
0.776446 0.964583 1.40815 
3.00895 1.00867 1.62544 
2.39808 0.877598 1.58902 
1.83626 0.768658 1.593 
1.32347 0.681848 1.63739 
0.859727 0.617168 1.72219 
3.08172 0.665431 1.83485 
2.47059 0.52633 1.79146 
1.9079 0.408501 1.80424 
1.39368 0.311945 1.87319 
0.927901 0.236663 1.99832 
-0.131086 -0.242694 1.46279 
-0.122062 -0.553541 1.45252 
-0.053518 -0.872813 1.48135 
0.0745558 -1.20046 1.54931 
0.262117 -1.53642 1.65636 
0.00105547 -0.0815233 1.812 
0.0538539 -0.477144 2.04185 
0.134404 -0.825536 2.11983 
0.268715 -1.18986 2.1482 
0.473727 -1.64828 2.04583 
0.221608 0.0521022 2.01769 
0.288184 -0.36747 2.28368 
0.387954 -0.770297 2.41132 
0.533198 -1.19673 2.4066 
0.736202 -1.68719 2.27556 
0.530549 0.15822 2.07975 
0.603025 -0.263808 2.32303 
0.711612 -0.699598 2.44742 
0.859381 -1.15926 2.45442 
1.0494 -1.6529 2.34555 
0.927901 0.236663 1.99832 
1.00371 -0.172511 2.20729 
1.10989 -0.60593 2.31985 
1.24645 -1.0636 2.336 
1.41338 -1.54551 2.25575 
0.467293 -2.42779 0.593382 
0.725979 -2.73281 0.768431 
1.02705 -2.90556 0.886119 
1.37051 -2.94593 0.946663 
1.75633 -2.85394 0.949949 
0.400914 -2.18174 0.801346 
0.758487 -2.55561 1.22191 
1.06571 -2.72957 1.38987 
1.38638 -2.7545 1.44395 
1.74288 -2.65203 1.4249 
0.344595 -1.95115 1.04784 
0.718798 -2.32922 1.52564 
1.03439 -2.48641 1.76722 
1.33923 -2.47982 1.83733 
1.68123 -2.36665 1.80085 
0.298357 -1.7361 1.33284 
0.643611 -2.06213 1.80252 
0.926693 -2.14823 2.05137 
1.22743 -2.11494 2.13509 
1.5714 -1.99781 2.0778 
0.262199 -1.5366 1.65628 
0.473827 -1.64849 2.04575 
0.736249 -1.68729 2.27552 
1.0494 -1.6529 2.34555 
1.41338 -1.54551 2.25575 
0.0336535 -2.2889 -0.718287 
0.222108 -2.57149 -0.829166 
0.529206 -2.74631 -0.913582 
0.955026 -2.81341 -0.971337 
1.49952 -2.77273 -1.00251 
0.0988095 -2.26168 -0.438819 
0.394494 -2.72275 -0.455377 
0.70872 -2.92822 -0.500198 
1.10549 -2.98511 -0.531339 
1.60389 -2.9284 -0.541649 
0.1928 -2.27575 -0.127051 
0.509673 -2.77241 -0.110247 
0.842499 -3.0125 -0.0897776 
1.22263 -3.0637 -0.0718374 
1.68148 -2.99382 -0.0626186 
0.31563 -2.33115 0.216974 
0.622727 -2.79585 0.271677 
0.944093 -3.0035 0.358666 
1.30984 -3.05028 0.417414 
1.73229 -2.969 0.434581 
0.467261 -2.42783 0.59319 
0.725945 -2.73286 0.7682 
1.02704 -2.90559 0.886005 
1.37051 -2.94593 0.946663 
1.75633 -2.85394 0.949948 
-0.389415 -1.46555 -1.68137 
-0.279558 -1.56595 -2.01118 
0.00324927 -1.60572 -2.27097 
0.459044 -1.58501 -2.46054 
1.08781 -1.50373 -2.57996 
-0.339236 -1.60929 -1.3645 
-0.194156 -1.87424 -1.70336 
0.0980945 -1.96385 -1.95064 
0.554825 -1.96679 -2.1223 
1.17961 -1.90833 -2.22866 
-0.252005 -1.79443 -1.09835 
-0.0976763 -2.10203 -1.42692 
0.208554 -2.25618 -1.6377 
0.667212 -2.29449 -1.76636 
1.27883 -2.2547 -1.84865 
-0.127723 -2.02096 -0.882985 
0.0335294 -2.332 -1.16502 
0.347853 -2.50842 -1.30204 
0.799511 -2.57456 -1.38522 
1.38547 -2.54283 -1.43994 
0.0335779 -2.28882 -0.71842 
0.222018 -2.5714 -0.829328 
0.529165 -2.74627 -0.913665 
0.955025 -2.81341 -0.971337 
1.49952 -2.77273 -1.00251 
-0.588679 -0.360275 -1.77099 
-0.528732 -0.200256 -2.12643 
-0.296045 -0.0112188 -2.41816 
0.109415 0.206612 -2.64623 
0.687633 0.453327 -2.8106 
-0.542781 -0.653455 -1.71489 
-0.46801 -0.599007 -2.26803 
-0.222596 -0.458711 -2.59328 
0.198714 -0.281401 -2.81117 
0.796636 -0.0775957 -2.96241 
-0.494272 -0.935404 -1.68126 
-0.412938 -0.91802 -2.27173 
-0.152381 -0.8506 -2.62899 
0.285716 -0.736917 -2.83567 
0.899667 -0.580745 -2.97457 
-0.443157 -1.20608 -1.67013 
-0.354322 -1.22142 -2.21536 
-0.0791751 -1.22142 -2.52248 
0.371973 -1.16857 -2.71903 
0.996723 -1.05612 -2.84708 
-0.389443 -1.46542 -1.68147 
-0.279593 -1.5658 -2.01131 
0.00323262 -1.60564 -2.27104 
0.459044 -1.58501 -2.46054 
1.08781 -1.50373 -2.57996 
-0.676738 0.494462 -0.828425 
-0.646206 0.846471 -0.969132 
-0.457734 1.18417 -1.08778 
-0.111311 1.50741 -1.18455 
0.393062 1.81624 -1.25935 
-0.651842 0.235549 -1.00082 
-0.632942 0.639581 -1.33973 
-0.439855 0.984271 -1.52302 
-0.0817212 1.30816 -1.65687 
0.437945 1.62857 -1.77181 
-0.628868 0.00678211 -1.21538 
-0.609355 0.411317 -1.60638 
-0.408783 0.736213 -1.87019 
-0.0355293 1.02939 -2.05302 
0.502001 1.33886 -2.20117 
-0.607821 -0.191779 -1.4721 
-0.579026 0.162985 -1.86685 
-0.361762 0.413286 -2.15875 
0.0279521 0.664436 -2.38035 
0.585231 0.947117 -2.54743 
-0.588699 -0.360125 -1.77091 
-0.528757 -0.200072 -2.12632 
-0.29606 -0.0111236 -2.41811 
0.109414 0.206612 -2.64623 
0.687633 0.453327 -2.8106 
-0.437098 0.544168 0.379155 
-0.365907 0.886387 0.509695 
-0.175198 1.16979 0.601164 
0.134948 1.39439 0.653343 
0.564566 1.56015 0.666321 
-0.524994 0.458583 0.0781818 
-0.504688 0.970668 0.111491 
-0.316628 1.306 0.174531 
0.00890517 1.56297 0.220277 
0.463062 1.77467 0.239342 
-0.59424 0.421767 -0.223414 
-0.584294 0.971617 -0.223751 
-0.405869 1.35484 -0.224014 
-0.072905 1.63826 -0.224105 
0.400644 1.88886 -0.223929 
-0.644826 0.433759 -0.525583 
-0.63175 0.953459 -0.561884 
-0.450407 1.31474 -0.632207 
-0.112353 1.61987 -0.689237 
0.37731 1.90272 -0.723493 
-0.676739 0.494524 -0.828275 
-0.646206 0.846545 -0.968948 
-0.457735 1.1842 -1.08769 
-0.111311 1.50741 -1.18455 
0.393062 1.81624 -1.25935 
-0.131102 -0.24255 1.46267 
0.00103572 -0.081349 1.81185 
0.221598 0.0521879 2.01762 
0.530551 0.158221 2.07975 
0.9279 0.236662 1.99832 
-0.200608 -0.0946067 1.10166 
-0.0569942 0.259901 1.47129 
0.161695 0.436946 1.68611 
0.465608 0.545305 1.76567 
0.859727 0.617167 1.72219 
-0.274777 0.0858307 0.800715 
-0.131255 0.488931 1.16645 
0.0819672 0.735076 1.3621 
0.37962 0.876263 1.42889 
0.776446 0.964583 1.40815 
-0.35359 0.298759 0.559928 
-0.22372 0.700772 0.879474 
-0.0271425 0.971163 1.01174 
0.270196 1.15724 1.06093 
0.67806 1.27891 1.05619 
-0.437038 0.544118 0.379304 
-0.365835 0.886324 0.509875 
-0.175164 1.16976 0.601252 
0.134947 1.39439 0.653343 
0.564566 1.56015 0.666321 
0.262097 -1.53646 1.65616 
0.0483197 -1.14366 1.53471 
-0.0535478 -0.872821 1.48118 
-0.114561 -0.607732 1.45452 
-0.131122 -0.24268 1.46259 
-0.213025 -0.0660543 1.04566 
-0.274799 0.0857345 0.800624 
-0.33976 0.259821 0.596875 
-0.437072 0.544019 0.37918 
0.305495 -1.7718 1.28109 
0.0707341 -1.37496 1.14832 
-0.0981987 -1.04783 0.974635 
-0.176049 -0.807075 0.931169 
-0.215339 -0.433113 1.01296 
-0.306126 -0.292957 0.577423 
-0.365404 -0.138311 0.384285 
-0.443883 0.145104 0.224297 
-0.538186 0.448671 0.026477 
0.344512 -1.95106 1.04772 
0.0727402 -1.52602 0.782574 
-0.0788236 -1.22507 0.694561 
-0.211475 -0.943206 0.522782 
-0.26558 -0.604798 0.614143 
-0.352909 -0.478804 0.230019 
-0.426056 -0.214579 0.0944294 
-0.505276 0.0126229 -0.0758313 
-0.594225 0.42164 -0.223414 
0.390454 -2.14097 0.840781 
0.105072 -1.68666 0.579176 
-0.0913579 -1.33854 0.364475 
-0.213076 -1.07457 0.2531 
-0.302337 -0.771243 0.220746 
-0.389242 -0.572458 -0.0338786 
-0.464784 -0.345154 -0.173502 
-0.55009 -0.00492254 -0.304026 
-0.637455 0.428107 -0.473698 
0.467199 -2.42769 0.593219 
0.212679 -2.02388 0.380617 
0.00322962 -1.65354 0.197357 
-0.18201 -1.28551 0.0159939 
-0.332745 -0.926435 -0.167528 
-0.445841 -0.580314 -0.345773 
-0.53941 -0.236143 -0.510884 
-0.616496 0.109155 -0.666007 
-0.676722 0.494374 -0.8283 
0.292444 -2.31858 0.155653 
0.0290249 -1.86394 -0.0414896 
-0.148462 -1.50802 -0.175371 
-0.263827 -1.26884 -0.309428 
-0.365946 -1.0653 -0.548397 
-0.429991 -0.78649 -0.567223 
-0.494474 -0.544895 -0.660275 
-0.572792 -0.22739 -0.836868 
-0.647748 0.194064 -1.03455 
0.192737 -2.27562 -0.127054 
-0.044628 -1.8489 -0.285263 
-0.185926 -1.60141 -0.448617 
-0.30237 -1.33468 -0.568845 
-0.392149 -1.19688 -0.921272 
-0.439796 -0.902104 -0.822972 
-0.503102 -0.650306 -0.961028 
-0.558516 -0.38111 -1.01946 
-0.628853 0.00669372 -1.21529 
0.112825 -2.26103 -0.387624 
-0.0946598 -1.92884 -0.581958 
-0.240212 -1.636 -0.724144 
-0.322091 -1.47501 -0.897569 
-0.404509 -1.3252 -1.28698 
-0.457787 -1.01002 -1.19985 
-0.497988 -0.800988 -1.22402 
-0.555856 -0.514336 -1.35007 
-0.611279 -0.159947 -1.42497 
0.0335739 -2.28875 -0.718313 
-0.151694 -1.97908 -0.916247 
-0.25202 -1.79436 -1.09827 
-0.326918 -1.63804 -1.31515 
-0.389437 -1.46544 -1.6813 
-0.452109 -1.16044 -1.6703 
-0.494271 -0.935404 -1.68112 
-0.534642 -0.70263 -1.70738 
-0.588681 -0.360248 -1.77082 
0 -0.408873 1.87323 
0 -0.500532 1.86143 
0 -0.0828106 1.80921 
0 -0.682994 1.77012 
0 -0.859349 1.66318 
0 -1.00973 1.50975 
0 -0.92547 1.5921 
0 -1.60527 -2.26799 
0 -1.8605 -1.96637 
0 -1.93377 -1.86764 
0 -2.05838 -1.6717 
0 -2.1512 -1.49415 
0 -2.26887 -1.15719 
0 -2.27323 -1.23195 
0 -2.26732 -1.10638 
0 -2.19113 -1.39954 
0 -2.22196 -0.863336 
0 -2.23302 -0.752633 
0 0.147829 -2.58469 
0 -0.172885 -2.65332 
0 -0.36503 -2.7084 
0 -0.580541 -2.69943 
0 -0.811058 -2.70088 
0 -0.943006 -2.65515 
0 -1.21215 -2.55698 
0 -1.60223 -2.27047 
0 -1.59057 -2.28089 
0 -1.27491 -2.51337 
0 1.57557 -1.20106 
0 1.53196 -1.30356 
0 1.35855 -1.67495 
0 1.31246 -1.73307 
0 1.04985 -2.06281 
0 0.66903 -2.3477 
0 0.825134 -2.23622 
0 0.646422 -2.36445 
0 1.02468 -2.08131 
0 0.254605 -2.53303 
0 1.29666 0.630639 
0 1.54395 0.2387 
0 1.55594 0.219025 
0 1.57117 0.171905 
0 1.67684 -0.224078 
0 1.68109 -0.304973 
0 1.68477 -0.697097 
0 1.66352 -0.815972 
0 -0.0753154 1.8058 
0 0.306042 1.52728 
0 0.454791 1.42651 
0 0.640453 1.28689 
0 0.912433 1.09889 
0 0.988149 1.01623 
0 1.04203 0.951722 
0 -1.13459 1.3013 
0 -1.23799 1.0756 
0 -1.30407 0.933714 
0 -1.38158 0.740334 
0 -1.44291 0.597242 
0 -1.50045 0.464331 
0 -1.64278 0.203064 
0 -1.64712 0.194195 
0 -1.72008 0.0531914 
0 -1.65044 0.189422 
0 -1.80574 -0.0633834 
0 -1.64888 0.191229 
0 -1.90864 -0.223047 
0 -1.85801 -0.137555 
0 -1.92913 -0.255525 
0 -1.82849 -0.0964643 
0 -2.04308 -0.432158 
0 -2.09169 -0.511923 
0 -2.15668 -0.632556 
3 0 1 10 
3 0 10 9 
3 1 2 11 
3 1 11 10 
3 2 3 12 
3 2 12 11 
3 3 4 13 
3 3 13 12 
3 4 5 14 
3 4 14 13 
3 5 6 15 
3 5 15 14 
3 6 7 16 
3 6 16 15 
3 7 8 17 
3 7 17 16 
3 9 10 19 
3 9 19 18 
3 10 11 20 
3 10 20 19 
3 11 12 21 
3 11 21 20 
3 12 13 22 
3 12 22 21 
3 13 14 23 
3 13 23 22 
3 14 15 24 
3 14 24 23 
3 15 16 25 
3 15 25 24 
3 16 17 26 
3 16 26 25 
3 18 19 28 
3 18 28 27 
3 19 20 29 
3 19 29 28 
3 20 21 30 
3 20 30 29 
3 21 22 31 
3 21 31 30 
3 22 23 32 
3 22 32 31 
3 23 24 33 
3 23 33 32 
3 24 25 34 
3 24 34 33 
3 25 26 35 
3 25 35 34 
3 27 28 37 
3 27 37 36 
3 28 29 38 
3 28 38 37 
3 29 30 39 
3 29 39 38 
3 30 31 40 
3 30 40 39 
3 31 32 41 
3 31 41 40 
3 32 33 42 
3 32 42 41 
3 33 34 43 
3 33 43 42 
3 34 35 44 
3 34 44 43 
3 36 37 46 
3 36 46 45 
3 37 38 47 
3 37 47 46 
3 38 39 48 
3 38 48 47 
3 39 40 49 
3 39 49 48 
3 40 41 50 
3 40 50 49 
3 41 42 51 
3 41 51 50 
3 42 43 52 
3 42 52 51 
3 43 44 53 
3 43 53 52 
3 45 46 55 
3 45 55 54 
3 46 47 56 
3 46 56 55 
3 47 48 57 
3 47 57 56 
3 48 49 58 
3 48 58 57 
3 49 50 59 
3 49 59 58 
3 50 51 60 
3 50 60 59 
3 51 52 61 
3 51 61 60 
3 52 53 62 
3 52 62 61 
3 54 55 64 
3 54 64 63 
3 55 56 65 
3 55 65 64 
3 56 57 66 
3 56 66 65 
3 57 58 67 
3 57 67 66 
3 58 59 68 
3 58 68 67 
3 59 60 69 
3 59 69 68 
3 60 61 70 
3 60 70 69 
3 61 62 71 
3 61 71 70 
3 63 64 73 
3 63 73 72 
3 64 65 74 
3 64 74 73 
3 65 66 75 
3 65 75 74 
3 66 67 76 
3 66 76 75 
3 67 68 77 
3 67 77 76 
3 68 69 78 
3 68 78 77 
3 69 70 79 
3 69 79 78 
3 70 71 80 
3 70 80 79 
3 4 82 87 
3 4 87 5 
3 82 83 88 
3 82 88 87 
3 83 84 89 
3 83 89 88 
3 84 85 90 
3 84 90 89 
3 5 87 92 
3 5 92 6 
3 87 88 93 
3 87 93 92 
3 88 89 94 
3 88 94 93 
3 89 90 95 
3 89 95 94 
3 6 92 97 
3 6 97 7 
3 92 93 98 
3 92 98 97 
3 93 94 99 
3 93 99 98 
3 94 95 100 
3 94 100 99 
3 7 97 102 
3 7 102 8 
3 97 98 103 
3 97 103 102 
3 98 99 104 
3 98 104 103 
3 99 100 105 
3 99 105 104 
3 44 35 112 
3 44 112 111 
3 35 26 113 
3 35 113 112 
3 26 17 114 
3 26 114 113 
3 17 8 102 
3 17 102 114 
3 111 112 117 
3 111 117 116 
3 112 113 118 
3 112 118 117 
3 113 114 119 
3 113 119 118 
3 114 102 103 
3 114 103 119 
3 116 117 122 
3 116 122 121 
3 117 118 123 
3 117 123 122 
3 118 119 124 
3 118 124 123 
3 119 103 104 
3 119 104 124 
3 121 122 127 
3 121 127 126 
3 122 123 128 
3 122 128 127 
3 123 124 129 
3 123 129 128 
3 124 104 105 
3 124 105 129 
3 80 71 137 
3 80 137 136 
3 71 62 138 
3 71 138 137 
3 62 53 139 
3 62 139 138 
3 53 44 111 
3 53 111 139 
3 136 137 142 
3 136 142 141 
3 137 138 143 
3 137 143 142 
3 138 139 144 
3 138 144 143 
3 139 111 116 
3 139 116 144 
3 141 142 147 
3 141 147 146 
3 142 143 148 
3 142 148 147 
3 143 144 149 
3 143 149 148 
3 144 116 121 
3 144 121 149 
3 146 147 152 
3 146 152 151 
3 147 148 153 
3 147 153 152 
3 148 149 154 
3 148 154 153 
3 149 121 126 
3 149 126 154 
3 76 77 162 
3 76 162 161 
3 77 78 163 
3 77 163 162 
3 78 79 164 
3 78 164 163 
3 79 80 136 
3 79 136 164 
3 161 162 167 
3 161 167 166 
3 162 163 168 
3 162 168 167 
3 163 164 169 
3 163 169 168 
3 164 136 141 
3 164 141 169 
3 166 167 172 
3 166 172 171 
3 167 168 173 
3 167 173 172 
3 168 169 174 
3 168 174 173 
3 169 141 146 
3 169 146 174 
3 171 172 177 
3 171 177 176 
3 172 173 178 
3 172 178 177 
3 173 174 179 
3 173 179 178 
3 174 146 151 
3 174 151 179 
3 72 73 187 
3 72 187 186 
3 73 74 188 
3 73 188 187 
3 74 75 189 
3 74 189 188 
3 75 76 161 
3 75 161 189 
3 186 187 192 
3 186 192 191 
3 187 188 193 
3 187 193 192 
3 188 189 194 
3 188 194 193 
3 189 161 166 
3 189 166 194 
3 191 192 197 
3 191 197 196 
3 192 193 198 
3 192 198 197 
3 193 194 199 
3 193 199 198 
3 194 166 171 
3 194 171 199 
3 196 197 202 
3 196 202 201 
3 197 198 203 
3 197 203 202 
3 198 199 204 
3 198 204 203 
3 199 171 176 
3 199 176 204 
3 36 45 212 
3 36 212 211 
3 45 54 213 
3 45 213 212 
3 54 63 214 
3 54 214 213 
3 63 72 186 
3 63 186 214 
3 211 212 217 
3 211 217 216 
3 212 213 218 
3 212 218 217 
3 213 214 219 
3 213 219 218 
3 214 186 191 
3 214 191 219 
3 216 217 222 
3 216 222 221 
3 217 218 223 
3 217 223 222 
3 218 219 224 
3 218 224 223 
3 219 191 196 
3 219 196 224 
3 221 222 227 
3 221 227 226 
3 222 223 228 
3 222 228 227 
3 223 224 229 
3 223 229 228 
3 224 196 201 
3 224 201 229 
3 0 9 237 
3 0 237 236 
3 9 18 238 
3 9 238 237 
3 18 27 239 
3 18 239 238 
3 27 36 211 
3 27 211 239 
3 236 237 242 
3 236 242 241 
3 237 238 243 
3 237 243 242 
3 238 239 244 
3 238 244 243 
3 239 211 216 
3 239 216 244 
3 241 242 247 
3 241 247 246 
3 242 243 248 
3 242 248 247 
3 243 244 249 
3 243 249 248 
3 244 216 221 
3 244 221 249 
3 246 247 252 
3 246 252 251 
3 247 248 253 
3 247 253 252 
3 248 249 254 
3 248 254 253 
3 249 221 226 
3 249 226 254 
3 4 3 262 
3 4 262 82 
3 3 2 263 
3 3 263 262 
3 2 1 264 
3 2 264 263 
3 1 0 236 
3 1 236 264 
3 82 262 267 
3 82 267 83 
3 262 263 268 
3 262 268 267 
3 263 264 269 
3 263 269 268 
3 264 236 241 
3 264 241 269 
3 83 267 272 
3 83 272 84 
3 267 268 273 
3 267 273 272 
3 268 269 274 
3 268 274 273 
3 269 241 246 
3 269 246 274 
3 84 272 277 
3 84 277 85 
3 272 273 278 
3 272 278 277 
3 273 274 279 
3 273 279 278 
3 274 246 251 
3 274 251 279 
3 105 100 287 
3 105 287 286 
3 100 95 288 
3 100 288 287 
3 95 90 289 
3 95 289 288 
3 90 85 290 
3 90 290 289 
3 286 287 292 
3 286 292 291 
3 287 288 293 
3 287 293 292 
3 288 289 294 
3 288 294 293 
3 289 290 295 
3 289 295 294 
3 291 292 297 
3 291 297 296 
3 292 293 298 
3 292 298 297 
3 293 294 299 
3 293 299 298 
3 294 295 300 
3 294 300 299 
3 296 297 302 
3 296 302 301 
3 297 298 303 
3 297 303 302 
3 298 299 304 
3 298 304 303 
3 299 300 305 
3 299 305 304 
3 105 286 312 
3 105 312 129 
3 286 291 313 
3 286 313 312 
3 291 296 314 
3 291 314 313 
3 296 301 315 
3 296 315 314 
3 129 312 317 
3 129 317 128 
3 312 313 318 
3 312 318 317 
3 313 314 319 
3 313 319 318 
3 314 315 320 
3 314 320 319 
3 128 317 322 
3 128 322 127 
3 317 318 323 
3 317 323 322 
3 318 319 324 
3 318 324 323 
3 319 320 325 
3 319 325 324 
3 127 322 327 
3 127 327 126 
3 322 323 328 
3 322 328 327 
3 323 324 329 
3 323 329 328 
3 324 325 330 
3 324 330 329 
3 126 327 337 
3 126 337 154 
3 327 328 338 
3 327 338 337 
3 328 329 339 
3 328 339 338 
3 329 330 340 
3 329 340 339 
3 154 337 342 
3 154 342 153 
3 337 338 343 
3 337 343 342 
3 338 339 344 
3 338 344 343 
3 339 340 345 
3 339 345 344 
3 153 342 347 
3 153 347 152 
3 342 343 348 
3 342 348 347 
3 343 344 349 
3 343 349 348 
3 344 345 350 
3 344 350 349 
3 152 347 352 
3 152 352 151 
3 347 348 353 
3 347 353 352 
3 348 349 354 
3 348 354 353 
3 349 350 355 
3 349 355 354 
3 151 352 362 
3 151 362 179 
3 352 353 363 
3 352 363 362 
3 353 354 364 
3 353 364 363 
3 354 355 365 
3 354 365 364 
3 179 362 367 
3 179 367 178 
3 362 363 368 
3 362 368 367 
3 363 364 369 
3 363 369 368 
3 364 365 370 
3 364 370 369 
3 178 367 372 
3 178 372 177 
3 367 368 373 
3 367 373 372 
3 368 369 374 
3 368 374 373 
3 369 370 375 
3 369 375 374 
3 177 372 377 
3 177 377 176 
3 372 373 378 
3 372 378 377 
3 373 374 379 
3 373 379 378 
3 374 375 380 
3 374 380 379 
3 176 377 387 
3 176 387 204 
3 377 378 388 
3 377 388 387 
3 378 379 389 
3 378 389 388 
3 379 380 390 
3 379 390 389 
3 204 387 392 
3 204 392 203 
3 387 388 393 
3 387 393 392 
3 388 389 394 
3 388 394 393 
3 389 390 395 
3 389 395 394 
3 203 392 397 
3 203 397 202 
3 392 393 398 
3 392 398 397 
3 393 394 399 
3 393 399 398 
3 394 395 400 
3 394 400 399 
3 202 397 402 
3 202 402 201 
3 397 398 403 
3 397 403 402 
3 398 399 404 
3 398 404 403 
3 399 400 405 
3 399 405 404 
3 201 402 412 
3 201 412 229 
3 402 403 413 
3 402 413 412 
3 403 404 414 
3 403 414 413 
3 404 405 415 
3 404 415 414 
3 229 412 417 
3 229 417 228 
3 412 413 418 
3 412 418 417 
3 413 414 419 
3 413 419 418 
3 414 415 420 
3 414 420 419 
3 228 417 422 
3 228 422 227 
3 417 418 423 
3 417 423 422 
3 418 419 424 
3 418 424 423 
3 419 420 425 
3 419 425 424 
3 227 422 427 
3 227 427 226 
3 422 423 428 
3 422 428 427 
3 423 424 429 
3 423 429 428 
3 424 425 430 
3 424 430 429 
3 226 427 437 
3 226 437 254 
3 427 428 438 
3 427 438 437 
3 428 429 439 
3 428 439 438 
3 429 430 440 
3 429 440 439 
3 254 437 442 
3 254 442 253 
3 437 438 443 
3 437 443 442 
3 438 439 444 
3 438 444 443 
3 439 440 445 
3 439 445 444 
3 253 442 447 
3 253 447 252 
3 442 443 448 
3 442 448 447 
3 443 444 449 
3 443 449 448 
3 444 445 450 
3 444 450 449 
3 252 447 452 
3 252 452 251 
3 447 448 453 
3 447 453 452 
3 448 449 454 
3 448 454 453 
3 449 450 455 
3 449 455 454 
3 251 452 462 
3 251 462 279 
3 452 453 463 
3 452 463 462 
3 453 454 464 
3 453 464 463 
3 454 455 465 
3 454 465 464 
3 279 462 467 
3 279 467 278 
3 462 463 468 
3 462 468 467 
3 463 464 469 
3 463 469 468 
3 464 465 470 
3 464 470 469 
3 278 467 472 
3 278 472 277 
3 467 468 473 
3 467 473 472 
3 468 469 474 
3 468 474 473 
3 469 470 475 
3 469 475 474 
3 277 472 290 
3 277 290 85 
3 472 473 295 
3 472 295 290 
3 473 474 300 
3 473 300 295 
3 474 475 305 
3 474 305 300 
3 301 302 487 
3 301 487 486 
3 302 303 488 
3 302 488 487 
3 303 304 489 
3 303 489 488 
3 304 305 490 
3 304 490 489 
3 486 487 492 
3 486 492 491 
3 487 488 493 
3 487 493 492 
3 488 489 494 
3 488 494 493 
3 489 490 495 
3 489 495 494 
3 491 492 497 
3 491 497 496 
3 492 493 498 
3 492 498 497 
3 493 494 499 
3 493 499 498 
3 494 495 500 
3 494 500 499 
3 496 497 502 
3 496 502 501 
3 497 498 503 
3 497 503 502 
3 498 499 504 
3 498 504 503 
3 499 500 505 
3 499 505 504 
3 301 486 512 
3 301 512 315 
3 486 491 513 
3 486 513 512 
3 491 496 514 
3 491 514 513 
3 496 501 515 
3 496 515 514 
3 315 512 517 
3 315 517 320 
3 512 513 518 
3 512 518 517 
3 513 514 519 
3 513 519 518 
3 514 515 520 
3 514 520 519 
3 320 517 522 
3 320 522 325 
3 517 518 523 
3 517 523 522 
3 518 519 524 
3 518 524 523 
3 519 520 525 
3 519 525 524 
3 325 522 527 
3 325 527 330 
3 522 523 528 
3 522 528 527 
3 523 524 529 
3 523 529 528 
3 524 525 530 
3 524 530 529 
3 330 527 537 
3 330 537 340 
3 527 528 538 
3 527 538 537 
3 528 529 539 
3 528 539 538 
3 529 530 540 
3 529 540 539 
3 340 537 542 
3 340 542 345 
3 537 538 543 
3 537 543 542 
3 538 539 544 
3 538 544 543 
3 539 540 545 
3 539 545 544 
3 345 542 547 
3 345 547 350 
3 542 543 548 
3 542 548 547 
3 543 544 549 
3 543 549 548 
3 544 545 550 
3 544 550 549 
3 350 547 552 
3 350 552 355 
3 547 548 553 
3 547 553 552 
3 548 549 554 
3 548 554 553 
3 549 550 555 
3 549 555 554 
3 355 552 562 
3 355 562 365 
3 552 553 563 
3 552 563 562 
3 553 554 564 
3 553 564 563 
3 554 555 565 
3 554 565 564 
3 365 562 567 
3 365 567 370 
3 562 563 568 
3 562 568 567 
3 563 564 569 
3 563 569 568 
3 564 565 570 
3 564 570 569 
3 370 567 572 
3 370 572 375 
3 567 568 573 
3 567 573 572 
3 568 569 574 
3 568 574 573 
3 569 570 575 
3 569 575 574 
3 375 572 577 
3 375 577 380 
3 572 573 578 
3 572 578 577 
3 573 574 579 
3 573 579 578 
3 574 575 580 
3 574 580 579 
3 380 577 587 
3 380 587 390 
3 577 578 588 
3 577 588 587 
3 578 579 589 
3 578 589 588 
3 579 580 590 
3 579 590 589 
3 390 587 592 
3 390 592 395 
3 587 588 593 
3 587 593 592 
3 588 589 594 
3 588 594 593 
3 589 590 595 
3 589 595 594 
3 395 592 597 
3 395 597 400 
3 592 593 598 
3 592 598 597 
3 593 594 599 
3 593 599 598 
3 594 595 600 
3 594 600 599 
3 400 597 602 
3 400 602 405 
3 597 598 603 
3 597 603 602 
3 598 599 604 
3 598 604 603 
3 599 600 605 
3 599 605 604 
3 405 602 612 
3 405 612 415 
3 602 603 613 
3 602 613 612 
3 603 604 614 
3 603 614 613 
3 604 605 615 
3 604 615 614 
3 415 612 617 
3 415 617 420 
3 612 613 618 
3 612 618 617 
3 613 614 619 
3 613 619 618 
3 614 615 620 
3 614 620 619 
3 420 617 622 
3 420 622 425 
3 617 618 623 
3 617 623 622 
3 618 619 624 
3 618 624 623 
3 619 620 625 
3 619 625 624 
3 425 622 627 
3 425 627 430 
3 622 623 628 
3 622 628 627 
3 623 624 629 
3 623 629 628 
3 624 625 630 
3 624 630 629 
3 430 627 637 
3 430 637 440 
3 627 628 638 
3 627 638 637 
3 628 629 639 
3 628 639 638 
3 629 630 640 
3 629 640 639 
3 440 637 642 
3 440 642 445 
3 637 638 643 
3 637 643 642 
3 638 639 644 
3 638 644 643 
3 639 640 645 
3 639 645 644 
3 445 642 647 
3 445 647 450 
3 642 643 648 
3 642 648 647 
3 643 644 649 
3 643 649 648 
3 644 645 650 
3 644 650 649 
3 450 647 652 
3 450 652 455 
3 647 648 653 
3 647 653 652 
3 648 649 654 
3 648 654 653 
3 649 650 655 
3 649 655 654 
3 455 652 662 
3 455 662 465 
3 652 653 663 
3 652 663 662 
3 653 654 664 
3 653 664 663 
3 654 655 665 
3 654 665 664 
3 465 662 667 
3 465 667 470 
3 662 663 668 
3 662 668 667 
3 663 664 669 
3 663 669 668 
3 664 665 670 
3 664 670 669 
3 470 667 672 
3 470 672 475 
3 667 668 673 
3 667 673 672 
3 668 669 674 
3 668 674 673 
3 669 670 675 
3 669 675 674 
3 475 672 490 
3 475 490 305 
3 672 673 495 
3 672 495 490 
3 673 674 500 
3 673 500 495 
3 674 675 505 
3 674 505 500 
3 962 963 687 
3 962 687 686 
3 964 962 686 
3 965 966 688 
3 965 688 687 
3 963 965 687 
3 967 684 689 
3 968 967 689 
3 968 689 688 
3 966 968 688 
3 684 685 690 
3 684 690 689 
3 686 687 692 
3 686 692 691 
3 687 688 693 
3 687 693 692 
3 688 689 694 
3 688 694 693 
3 689 690 695 
3 689 695 694 
3 691 692 697 
3 691 697 696 
3 692 693 698 
3 692 698 697 
3 693 694 699 
3 693 699 698 
3 694 695 700 
3 694 700 699 
3 696 697 504 
3 696 504 505 
3 697 698 503 
3 697 503 504 
3 698 699 502 
3 698 502 503 
3 699 700 501 
3 699 501 502 
3 706 707 712 
3 706 712 711 
3 707 708 713 
3 707 713 712 
3 708 709 714 
3 708 714 713 
3 709 530 525 
3 709 525 714 
3 711 712 717 
3 711 717 716 
3 712 713 718 
3 712 718 717 
3 713 714 719 
3 713 719 718 
3 714 525 520 
3 714 520 719 
3 716 717 722 
3 716 722 721 
3 717 718 723 
3 717 723 722 
3 718 719 724 
3 718 724 723 
3 719 520 515 
3 719 515 724 
3 721 722 690 
3 721 690 685 
3 722 723 695 
3 722 695 690 
3 723 724 700 
3 723 700 695 
3 724 515 501 
3 724 501 700 
3 731 732 737 
3 731 737 736 
3 732 733 738 
3 732 738 737 
3 733 734 739 
3 733 739 738 
3 734 555 550 
3 734 550 739 
3 736 737 742 
3 736 742 741 
3 737 738 743 
3 737 743 742 
3 738 739 744 
3 738 744 743 
3 739 550 545 
3 739 545 744 
3 741 742 747 
3 741 747 746 
3 742 743 748 
3 742 748 747 
3 743 744 749 
3 743 749 748 
3 744 545 540 
3 744 540 749 
3 746 747 707 
3 746 707 706 
3 747 748 708 
3 747 708 707 
3 748 749 709 
3 748 709 708 
3 749 540 530 
3 749 530 709 
3 969 758 763 
3 970 969 763 
3 970 763 971 
3 758 759 764 
3 758 764 763 
3 759 580 575 
3 759 575 764 
3 971 763 768 
3 972 971 768 
3 972 768 973 
3 763 764 769 
3 763 769 768 
3 764 575 570 
3 764 570 769 
3 974 975 772 
3 974 772 976 
3 973 768 773 
3 977 973 773 
3 977 773 772 
3 975 977 772 
3 768 769 774 
3 768 774 773 
3 769 570 565 
3 769 565 774 
3 976 772 732 
3 978 976 732 
3 978 732 731 
3 979 978 731 
3 772 773 733 
3 772 733 732 
3 773 774 734 
3 773 734 733 
3 774 565 555 
3 774 555 734 
3 980 784 789 
3 981 980 789 
3 981 789 982 
3 784 605 600 
3 784 600 789 
3 982 789 794 
3 983 982 794 
3 983 794 984 
3 789 600 595 
3 789 595 794 
3 984 794 799 
3 985 984 799 
3 985 799 986 
3 794 595 590 
3 794 590 799 
3 987 988 758 
3 987 758 969 
3 986 799 759 
3 989 986 759 
3 989 759 758 
3 988 989 758 
3 799 590 580 
3 799 580 759 
3 990 630 625 
3 991 990 625 
3 991 625 992 
3 992 625 620 
3 993 992 620 
3 993 620 994 
3 995 996 824 
3 995 824 997 
3 994 620 615 
3 998 994 615 
3 998 615 824 
3 996 998 824 
3 997 824 784 
3 999 997 784 
3 999 784 980 
3 824 615 605 
3 824 605 784 
3 1000 834 839 
3 1001 1000 839 
3 1001 839 1002 
3 834 655 650 
3 834 650 839 
3 1002 839 1003 
3 839 650 645 
3 839 645 1003 
3 1003 645 1004 
3 1004 645 640 
3 1005 1004 640 
3 1005 640 1006 
3 1006 640 630 
3 1007 1006 630 
3 1007 630 990 
3 964 686 1008 
3 686 691 863 
3 686 863 1008 
3 1008 863 1009 
3 691 696 864 
3 691 864 863 
3 696 505 675 
3 696 675 864 
3 1009 863 868 
3 1010 1009 868 
3 1010 868 1011 
3 863 864 869 
3 863 869 868 
3 864 675 670 
3 864 670 869 
3 1011 868 1012 
3 868 869 874 
3 868 874 1012 
3 1012 874 1013 
3 869 670 665 
3 869 665 874 
3 1013 874 834 
3 1014 1013 834 
3 1014 834 1000 
3 874 665 655 
3 874 655 834 
3 685 684 891 
3 685 891 721 
3 684 967 1015 
3 684 1016 891 
3 684 1015 1016 
3 721 891 900 
3 721 900 716 
3 891 1016 1017 
3 891 1018 900 
3 891 1017 1018 
3 716 900 909 
3 716 909 711 
3 900 1018 1019 
3 900 1020 909 
3 900 1019 1020 
3 711 909 918 
3 711 918 706 
3 909 1021 919 
3 909 1020 1021 
3 909 919 918 
3 1021 1022 919 
3 706 918 927 
3 706 927 746 
3 918 919 1023 
3 1023 919 1024 
3 918 1025 927 
3 918 1023 1025 
3 919 1022 1026 
3 919 1026 1024 
3 746 927 1027 
3 1027 927 1028 
3 746 1029 741 
3 746 1027 1029 
3 927 1025 1030 
3 927 1030 1028 
3 741 1029 1031 
3 741 1032 736 
3 741 1031 1032 
3 736 1032 1033 
3 736 979 731 
3 736 1033 979 
